<?xml version="1.0" encoding="iso-8859-1"?>
<!-- Generator: Adobe Illustrator 16.0.0, SVG Export Plug-In . SVG Version: 6.00 Build 0)  -->
<!DOCTYPE svg PUBLIC "-//W3C//DTD SVG 1.1//EN" "http://www.w3.org/Graphics/SVG/1.1/DTD/svg11.dtd">
<!-- License: CC0. Made by SVG Repo: https://www.svgrepo.com/svg/70182/book -->
<svg version="1.1" id="Capa_1" xmlns="http://www.w3.org/2000/svg" xmlns:xlink="http://www.w3.org/1999/xlink" x="0px" y="0px"
	 width="800px" height="800px" viewBox="0 0 70.074 70.075" style="enable-background:new 0 0 70.074 70.075;"
	 xml:space="preserve" fill="#054F83">
<g>
	<path d="M67.679,17.313v-4.172h-4.418v-5.26l-28.335,5.26H2.392v4.172H0v44.879h70.074V17.313H67.679z M4.725,17.313v-1.836h29.142
		v1.836v40.792H4.725V17.313z M47.729,13.141l13.194-2.45v2.45v1.168v1.168v1.836v35.96l-24.72,4.59v-40.55v-1.836v-0.196
		l5.234-0.972L47.729,13.141z M65.344,17.313v40.792H47.729l15.53-2.879V17.315v-1.836h2.085V17.313L65.344,17.313z M7.42,45.012
		h22.896v2.336H7.42V45.012z M7.208,51.31h22.896v2.336H7.208V51.31z M10.032,30.245l0.598-1.86h3.469l0.618,1.86h1.012h1.014
		l-3.234-9.143h-1.107h-1.107l-3.232,9.143h0.988H10.032z M12.373,23.142l1.212,3.669h-2.427L12.373,23.142z M30.102,23.351H18.133
		v-2.335h11.969V23.351z M30.102,29.314H18.133v-2.336h11.969V29.314z M30.102,35.275H7.631V32.94h22.471V35.275z M30.102,41.23
		H7.631v-2.336h22.471V41.23z M39.554,47.305l-0.616-2.254l18.477-5.021l0.614,2.253L39.554,47.305z M39.342,53.605l-0.614-2.256
		l18.477-5.021l0.614,2.254L39.342,53.605z M39.805,23.309l-0.63-2.249l13.436-3.747l4.58-1.278l0.356,1.278l0.267,0.972
		L39.805,23.309z M39.805,29.271l-0.63-2.25l18.016-5.022l0.63,2.249L39.805,29.271z M39.772,35.229l-0.632-2.25l18.055-5.023
		l0.627,2.25L39.772,35.229z M39.772,41.192l-0.632-2.25l18.055-5.021l0.627,2.25L39.772,41.192z" fill="#054F83"/>
</g>
</svg>
