<svg xmlns="http://www.w3.org/2000/svg" xmlns:xlink="http://www.w3.org/1999/xlink" width="70px" height="70px" viewBox="0 0 70 70" version="1.1">
    <title>7B59D175-1232-402E-AC94-0E66AF760CE9</title>
    <g id="clients-types-page" stroke="none" stroke-width="1" fill="none" fill-rule="evenodd">
        <g id="clients-types-page-1440" transform="translate(-970.000000, -1567.000000)">
            <g id="icons-section" transform="translate(10.000000, 1212.000000)">
                <g id="icons-section-item/content-option-1/desktop" transform="translate(785.000000, 355.000000)">
                    <g id="decor-icons/red/realtime" transform="translate(175.000000, 0.000000)">
                        <rect id="bounding_box" x="0" y="0" width="70" height="70"/>
                        <g id="icon" transform="translate(10.000000, 13.000000)" fill="#054F83">
                            <path d="M39.37,22.51 C45.2794468,22.51 50.07,27.3005532 50.07,33.21 C50.064487,39.1171618 45.2771618,43.904487 39.37,43.91 C33.4605532,43.91 28.67,39.1194468 28.67,33.21 C28.67,27.3005532 33.4605532,22.51 39.37,22.51 Z M39.37,23.91 C34.2337518,23.91 30.07,28.0737518 30.07,33.21 C30.07,38.3462482 34.2337518,42.51 39.37,42.51 C44.5062482,42.51 48.67,38.3462482 48.67,33.21 C48.6644885,28.0760365 44.5039635,23.9155115 39.37,23.91 Z M46.6,0.63 L47.3,1.33 L47.29,21.72 L45.89,21.72 L45.89,8.04 L4.66,8.04 L4.66,6.64 L45.89,6.64 L45.9,2.03 L1.66,2.03 L1.66,38.34 L27.05,38.34 L27.05,39.73 L0.96,39.73 L0.27,39.03 L0.26,1.33 L0.96,0.63 L46.6,0.63 Z M40.08,26.82 L40.1,33.46 L44.02,35.28 L43.42,36.55 L39.11,34.54 L38.7,33.91 L38.68,26.83 L40.08,26.82 Z M20.1,15.42 L21.4,15.46 L23.88,22.33 L28.98,22.33 L28.98,23.73 L23.39,23.73 L22.73,23.27 L20.68,17.59 L17.14,25.67 L16.49,26.09 L4.71,26.05 L4.71,24.65 L16.04,24.69 L20.1,15.42 Z M41.34,18.9 L41.34,20.3 L37.34,20.3 L37.34,18.9 L41.34,18.9 Z M43.96,3.66 L43.96,5.06 L42.01,5.06 L42.01,3.66 L43.96,3.66 Z M40.99,3.66 L40.99,5.06 L39.04,5.06 L39.04,3.66 L40.99,3.66 Z" id="Shape"/>
                        </g>
                    </g>
                </g>
            </g>
        </g>
    </g>
</svg>